<svg width="773" height="207" viewBox="0 0 773 207" fill="none" xmlns="http://www.w3.org/2000/svg">
<g clip-path="url(#clip0_2_89)">
<path d="M286.694 180.399C279.335 180.399 271.976 180.399 264.617 180.399C218.01 179.787 182.748 142.79 183.055 95.0916C183.668 48.3102 220.156 11.9247 265.843 12.5362C282.401 12.842 299.265 14.6765 315.823 14.9823C323.182 14.9823 324.715 18.0399 324.409 25.0724C323.795 39.7489 328.701 58.4003 321.649 67.8789C315.21 76.7459 295.892 69.7135 282.401 70.6307C276.575 70.9365 270.749 70.6307 264.617 70.6307C247.446 71.2423 235.487 82.8612 236.101 98.7607C236.407 113.743 248.059 125.362 264.31 125.668C280.868 125.973 297.732 125.973 314.29 125.668C321.956 125.362 324.715 127.808 324.102 135.758C323.489 147.377 323.489 159.301 324.102 170.92C324.715 179.176 321.649 181.316 313.983 181.01C305.398 180.093 295.892 180.399 286.694 180.399Z" fill="#1F9DFF"/>
<path d="M416.396 91.1167C416.396 117.412 416.089 144.013 416.396 170.309C416.396 177.953 415.169 181.316 406.584 180.705C391.866 179.787 373.162 185.291 363.656 178.259C354.764 171.532 361.203 151.657 360.897 137.592C360.59 95.3974 360.897 53.2024 360.59 11.3132C360.59 3.05762 362.123 -0.611508 371.322 0.305775C382.974 1.22306 394.626 1.22306 406.584 0.305775C415.169 -0.305747 416.396 3.36338 416.396 10.7016C416.089 37.3028 416.396 64.2098 416.396 91.1167Z" fill="#1FFF32"/>
<path d="M509.303 148.294C509.916 180.399 509.916 180.399 477.721 180.399C453.804 180.399 453.804 180.399 453.804 156.55C453.804 147.377 453.804 138.204 453.804 129.031C453.804 114.966 446.445 106.405 433.567 101.513C432.954 101.207 432.647 101.513 432.034 101.207C426.821 99.0665 420.995 59.0118 425.901 49.5333C430.501 40.972 438.473 46.7814 444.605 48.0044C479.867 55.6485 505.317 84.39 508.996 120.164C509.916 129.948 509.303 139.121 509.303 148.294Z" fill="#1FFF32"/>
<path d="M772.693 123.527C772.693 141.567 772.387 156.549 773 171.226C773.307 178.259 771.467 181.01 763.801 180.705C751.23 180.093 738.351 180.093 725.78 180.705C719.034 181.01 717.194 178.564 717.194 172.143C717.501 142.179 717.501 112.214 717.194 82.2496C717.194 75.8287 719.034 72.7711 725.78 73.6883C726.393 73.6883 726.7 73.6883 727.313 73.6883C742.031 73.9941 756.749 74.2999 771.467 74.6056C775.146 92.034 771.16 109.462 772.693 123.527Z" fill="#FF4AC4"/>
<path d="M773 28.13C772.693 43.418 760.122 55.6484 744.177 55.0369C729.153 54.7312 717.194 42.5007 716.888 27.8242C716.888 12.5362 729.459 0 745.097 0C760.735 0.305761 773 12.8419 773 28.13Z" fill="#FF4AC4"/>
<path d="M166.804 124.445C166.804 138.815 167.444 155.021 168.057 169.086C168.363 175.812 166.217 178.564 159.471 177.647C158.858 177.647 158.551 177.647 157.938 177.647C143.22 177.035 124.516 183.762 115.011 175.201C106.119 167.251 111.918 146.154 111.305 132.089C110.998 118.329 116.824 100.901 116.517 87.1418C115.904 71.548 98.4264 61.7637 84.3217 60.2349C70.8302 58.7061 55.499 72.771 51.8195 86.2245C47.8334 99.678 56.4189 118.635 70.5236 123.222C79.7224 125.973 100.573 127.502 100.266 135.452C99.9596 146.765 99.6529 157.773 100.266 169.086C100.879 177.341 81.2555 176.424 72.9766 175.507C49.6732 173.061 34.3419 159.913 34.3419 159.913C21.1571 149.823 14.4114 138.815 12.8782 136.369C11.6517 134.229 -1.83972 111.908 2.2456e-05 86.5303C2.75964 50.1448 35.8751 7.94978 82.1753 7.64402C127.249 7.0325 163.737 39.7489 166.19 83.1669C167.11 96.9261 166.19 110.685 166.19 124.445C166.497 124.445 166.804 124.445 166.804 124.445Z" fill="#F4003D"/>
<path d="M85.8548 127.196C105.837 127.196 122.036 111.043 122.036 91.1167C122.036 71.1904 105.837 55.0369 85.8548 55.0369C65.8722 55.0369 49.6732 71.1904 49.6732 91.1167C49.6732 111.043 65.8722 127.196 85.8548 127.196Z" fill="#121212" stroke="white" stroke-miterlimit="10"/>
<path d="M90.7608 68.7962C90.7608 68.7962 107.319 75.2171 103.946 88.9764C104.252 98.7607 107.625 96.0089 108.852 92.9513C110.078 89.5879 111.305 73.6883 93.8271 63.2925C87.388 62.6809 90.7608 68.7962 90.7608 68.7962Z" fill="white" stroke="white" stroke-miterlimit="10"/>
<path d="M575.534 115.883C575.534 115.883 583.2 138.815 619.994 139.733C620.608 181.622 620.608 181.622 620.608 181.622C620.608 181.622 548.858 184.679 531.38 119.247C516.049 51.9793 576.147 19.8745 576.147 19.8745C576.147 19.8745 623.367 -4.89216 660.775 25.3781C693.891 51.9793 702.783 80.1093 699.41 114.966C590.559 114.355 575.534 115.883 575.534 115.883ZM575.534 78.8863L654.95 78.8863C654.95 78.8863 619.688 25.0724 575.534 78.8863Z" fill="#FF3615"/>
</g>
<defs>
<clipPath id="clip0_2_89">
<rect width="773" height="207" fill="white"/>
</clipPath>
</defs>
</svg>
